#!OML:ASF E:\id_vita\Project 1\Capture day 1\Session 1\Female.ASF
:FULLY-SPECIFIED
:DEGREES
875
root -21.652 16.3191 -0.521216 369.275 -173.412 -357.404
lowerback -14.399 0.850251 -2.34068
upperback -3.10639 1.06227 1.04668
thorax 4.71352 0.340677 2.60577
lowerneck 18.6786 0.0274449 -3.35024
upperneck -23.8032 -0.645062 3.49541
head -10.732 -0.654369 1.96067
rclavicle -2.01766e-014 -6.16232e-015
rhumerus -34.476 -25.0459 -78.4349
rradius 16.402
rwrist 31.4723
rhand -13.4716 10.626
rfingers 7.12502
rthumb 12.6385 -18.9716
lclavicle -2.01766e-014 -6.16232e-015
lhumerus -97.1312 60.4078 -3.18605
lradius 10.4497
lwrist -105.23
lhand -8.72776 22.0066
lfingers 7.12502
lthumb 17.2085 51.2646
rfemur -15.6263 1.57001 24.9838
rtibia 26.9578
rfoot -9.0746 -21.4178
rtoes -14.8921
lfemur -9.87288 -14.0459 -13.7349
ltibia 24.7396
lfoot -23.452 13.8043
ltoes -6.20647
876
root -21.6356 16.3191 -0.530709 369.545 -173.579 -357.436
lowerback -14.6221 0.957424 -2.09117
upperback -3.2203 1.16111 0.884484
thorax 4.71794 0.386018 2.31371
lowerneck 18.6077 0.0535138 -3.58119
upperneck -23.5531 -0.543323 3.94246
head -10.6274 -0.637019 2.13916
rclavicle -1.11319e-014 3.37934e-015
rhumerus -34.6532 -25.3199 -78.4478
rradius 16.4422
rwrist 31.5364
rhand -13.94 10.6032
rfingers 7.12502
rthumb 12.187 -19.0218
lclavicle -1.11319e-014 3.37934e-015
lhumerus -90.4879 60.5286 4.36608
lradius 10.4466
lwrist -101.575
lhand -9.03169 22.5108
lfingers 7.12502
lthumb 16.9159 51.7941
rfemur -15.7912 1.29234 25.0236
rtibia 26.7723
rfoot -9.27657 -21.1206
rtoes -15.0751
lfemur -10.1148 -14.0343 -13.6796
ltibia 24.7729
lfoot -23.3654 13.9497
ltoes -6.37473
877
root -21.613 16.3137 -0.540772 369.396 -173.594 -357.441
lowerback -14.5223 0.91709 -2.04087
upperback -3.14522 1.10755 0.916497
thorax 4.74646 0.363485 2.30847
lowerneck 18.5085 0.150839 -4.01976
upperneck -23.4191 -0.430247 4.33131
head -10.5616 -0.591976 2.33276
rclavicle -2.11954e-014 -7.15625e-015
rhumerus -34.2414 -24.2101 -79.0629
rradius 16.3231
rwrist 30.1485
rhand -14.1038 10.2031
rfingers 7.12502
rthumb 12.0291 -19.4312
lclavicle -2.11954e-014 -7.15625e-015
lhumerus -83.1351 60.2491 13.0143
lradius 10.4972
lwrist -97.4073
lhand -6.36474 22.9534
lfingers 7.12502
lthumb 19.4817 51.9974
rfemur -15.497 1.20728 25.1349
rtibia 26.5604
rfoot -9.30787 -21.1676
rtoes -15.2399
lfemur -9.96182 -13.9693 -13.64
ltibia 24.8697
lfoot -23.2854 13.9865
ltoes -6.94623
878
root -21.5818 16.3107 -0.556339 369.268 -173.602 -357.458
lowerback -14.4847 0.806955 -2.18033
upperback -3.05714 0.989607 0.976189
thorax 4.82147 0.305967 2.42975
lowerneck 18.3717 0.204179 -4.08306
upperneck -23.2896 -0.355041 4.38015
head -10.4916 -0.556291 2.34563
rclavicle -2.52581e-014 -6.36111e-015
rhumerus -33.8082 -23.6225 -79.3774
rradius 15.9648
rwrist 29.8537
rhand -14.0753 10.2437
rfingers 7.12502
rthumb 12.0565 -19.3889
lclavicle -2.52581e-014 -6.36111e-015
lhumerus -79.4156 60.0177 17.3311
lradius 10.4492
lwrist -95.4256
lhand -5.23054 23.0948
lfingers 7.12502
lthumb 20.5719 52.0247
rfemur -15.1701 1.96093 25.2236
rtibia 26.351
rfoot -9.11576 -21.8489
rtoes -14.5272
lfemur -9.83908 -13.6092 -13.5684
ltibia 25.0008
lfoot -23.2992 13.7607
ltoes -8.11095
879
root -21.5516 16.3074 -0.571573 369.215 -173.679 -357.379
lowerback -14.4358 0.818049 -2.22142
upperback -3.08505 1.00596 0.997767
thorax 4.76311 0.313717 2.47744
lowerneck 18.3139 0.0977022 -3.68309
upperneck -23.1399 -0.480618 3.96833
head -10.4226 -0.59432 2.14307
rclavicle -9.10682e-015 -1.78906e-015
rhumerus -34.1633 -25.5859 -78.0947
rradius 15.6331
rwrist 33.3462
rhand -13.3213 10.8152
rfingers 7.12502
rthumb 12.7835 -18.7735
lclavicle -9.10682e-015 -1.78906e-015
lhumerus -75.6997 59.4842 21.5847
lradius 10.411
lwrist -93.4277
lhand -5.97559 23.4376
lfingers 7.12502
lthumb 19.8558 52.4433
rfemur -14.9676 2.45076 25.4243
rtibia 26.1666
rfoot -9.01727 -22.2228
rtoes -13.6733
lfemur -9.78311 -13.1957 -13.3992
ltibia 25.1119
lfoot -23.3121 13.6054
ltoes -9.07283
880
root -21.5227 16.3039 -0.584026 369.28 -173.763 -357.325
lowerback -14.5221 0.876326 -2.30518
upperback -3.14542 1.08372 1.06267
thorax 4.73836 0.347695 2.60811
lowerneck 18.2287 -0.00339027 -3.967
upperneck -22.8653 -0.601972 4.31176
head -10.2981 -0.660386 2.32227
rclavicle -2.55935e-014 -2.18663e-015
rhumerus -34.3065 -25.6106 -78.001
rradius 15.6905
rwrist 33.1007
rhand -13.5436 10.5566
rfingers 7.12502
rthumb 12.5691 -19.0453
lclavicle -2.55935e-014 -2.18663e-015
lhumerus -72.5324 58.9218 25.4442
lradius 10.4905
lwrist -91.6022
lhand -8.66216 23.8356
lfingers 7.12502
lthumb 17.2716 53.0881
rfemur -14.964 2.43822 25.631
rtibia 25.9989
rfoot -8.75926 -22.257
rtoes -14.0258
lfemur -9.88991 -12.7956 -13.2477
ltibia 25.2408
lfoot -23.2167 13.5928
ltoes -9.83595
881
root -21.4958 16.3041 -0.595403 369.394 -173.867 -357.425
lowerback -14.6839 0.889517 -2.4785
upperback -3.17456 1.1225 1.07239
thorax 4.78886 0.360963 2.7265
lowerneck 18.2102 0.164211 -4.04478
upperneck -22.5071 -0.348163 4.36548
head -10.1772 -0.532254 2.30913
rclavicle 2.98177e-016 6.75868e-015
rhumerus -34.6352 -26.4276 -77.4597
rradius 15.9098
rwrist 34.1742
rhand -13.3954 10.4571
rfingers 7.12502
rthumb 12.712 -19.136
lclavicle 2.98177e-016 6.75868e-015
lhumerus -69.7264 58.4079 28.8895
lradius 10.5852
lwrist -89.8831
lhand -8.25506 23.7126
lfingers 7.12502
lthumb 17.6634 52.9303
rfemur -14.9586 2.82772 25.6276
rtibia 25.8407
rfoot -8.36857 -22.5727
rtoes -14.5636
lfemur -10.0788 -12.3686 -13.2463
ltibia 25.4177
lfoot -23.1685 13.3997
ltoes -9.91218
882
root -21.4676 16.3033 -0.608725 369.516 -174.088 -357.52
lowerback -14.8567 0.93812 -2.569
upperback -3.19996 1.20282 0.976873
thorax 4.85066 0.395938 2.69484
lowerneck 18.4763 0.0927171 -3.75128
upperneck -22.8014 -0.431482 4.15474
head -10.3315 -0.575991 2.20626
rclavicle 1.34677e-014 -2.98177e-015
rhumerus -34.4358 -26.0459 -77.8353
rradius 15.7835
rwrist 33.7861
rhand -13.593 10.141
rfingers 7.12502
rthumb 12.5215 -19.4638
lclavicle 1.34677e-014 -2.98177e-015
lhumerus -66.4485 57.6249 32.6437
lradius 10.6418
lwrist -87.8341
lhand -7.99806 23.6552
lfingers 7.12502
lthumb 17.9107 52.8505
rfemur -14.9085 3.30479 25.5937
rtibia 25.6746
rfoot -8.26019 -22.7794
rtoes -14.4681
lfemur -10.267 -11.8871 -13.247
ltibia 25.6279
lfoot -23.2286 13.1219
ltoes -9.60762
883
root -21.4356 16.2991 -0.621994 369.626 -174.288 -357.475
lowerback -15.0105 1.04964 -2.55177
upperback -3.23302 1.34714 0.908222
thorax 4.89206 0.46366 2.64208
lowerneck 18.4508 0.0193831 -3.5765
upperneck -22.7342 -0.483779 4.13408
head -10.3003 -0.611417 2.17477
rclavicle 1.20637e-014 -1.78906e-014
rhumerus -34.3625 -26.2051 -77.8996
rradius 15.6125
rwrist 33.8411
rhand -13.8029 9.87061
rfingers 7.12502
rthumb 12.3192 -19.7465
lclavicle 1.20637e-014 -1.78906e-014
lhumerus -62.4371 56.3507 37.2432
lradius 10.6421
lwrist -85.2543
lhand -7.98608 23.8385
lfingers 7.12502
lthumb 17.9222 53.0327
rfemur -14.8699 3.93582 25.7156
rtibia 25.5155
rfoot -8.21036 -23.1054
rtoes -13.8819
lfemur -10.4512 -11.4358 -13.0905
ltibia 25.8461
lfoot -23.3357 12.9514
ltoes -9.97133
